HIERARCHY
ROOT Hips
{
	OFFSET 0.000000 0.000000 0.000000 
	CHANNELS 6 Xposition Yposition Zposition Yrotation Zrotation Xrotation 
	JOINT Lumbar
	{
		OFFSET 0.000000 0.000000 0.000000 
		CHANNELS 3 Zrotation Xrotation Yrotation
		JOINT Neck
		{
			OFFSET 0.000000 0.445665 0.000000 
			CHANNELS 3 Zrotation Xrotation Yrotation
			End Site
			{
				OFFSET 0.000000 0.227535 0.000000 
			}
		}
		JOINT RightShoulder
		{
			OFFSET 0.019635 0.377685 0.194865 
			CHANNELS 3 Zrotation Xrotation Yrotation
			JOINT RightElbow
			{
				OFFSET 0.000000 -0.243375 0.000000 
				CHANNELS 2 Zrotation Yrotation
				JOINT RightWrist
				{
					OFFSET 0.000000 -0.264825 0.000000 
					CHANNELS 2 Zrotation Xrotation
					End Site
					{
						OFFSET 0.006600 -0.176220 0.000990 
					}
				}
			}
		}
		JOINT LeftShoulder
		{
			OFFSET 0.019635 0.377685 -0.194865 
			CHANNELS 3 Zrotation Xrotation Yrotation
			JOINT LeftElbow
			{
				OFFSET 0.000000 -0.243375 0.000000 
				CHANNELS 2 Zrotation Yrotation
				JOINT LeftWrist
				{
					OFFSET 0.000000 -0.264825 0.000000 
					CHANNELS 2 Zrotation Xrotation
					End Site
					{
						OFFSET 0.006600 -0.176220 -0.000990 
					}
				}
			}
		}
	}
	JOINT RightHip
	{
		OFFSET 0.052140 -0.069960 0.075570 
		CHANNELS 3 Zrotation Xrotation Yrotation
		JOINT RightKnee
		{
			OFFSET 0.000000 -0.402270 0.000000 
			CHANNELS 1 Zrotation
			JOINT RightAnkle
			{
				OFFSET 0.000000 -0.404085 0.000000 
				CHANNELS 3 Zrotation Xrotation Yrotation
				End Site
				{
					OFFSET 0.204105 -0.089430 0.008415 
				}
			}
		}
	}
	JOINT LeftHip
	{
		OFFSET 0.052140 -0.069960 -0.075570 
		CHANNELS 3 Zrotation Xrotation Yrotation
		JOINT LeftKnee
		{
			OFFSET 0.000000 -0.402270 0.000000 
			CHANNELS 1 Zrotation
			JOINT LeftAnkle
			{
				OFFSET 0.000000 -0.404085 0.000000 
				CHANNELS 3 Zrotation Xrotation Yrotation
				End Site
				{
					OFFSET 0.204105 -0.089430 -0.008415 
				}
			}
		}
	}
}
MOTION
Frames: 32
Frame Time: 0.02
-0.93995 0.95331 0.27953 198.55476 0 -5.70311 3.99368 8.23727 4.20624 -6.15356 4.05274 2.86253 -0.979 -15.45207 -31.24693 7.86742 72.2402 -6.96836 -0.41073 17.3958 25.31022 -15.9242 25.20852 -114.16681 -25.04084 8.76851 2.80437 2.01145 -1.57083 -14.23698 0.51985 -5.02735 -13.1506 -2.71168 3.27378 -4.84137 -5.08912 7.98066 6.12649 7.29025
-0.9429 0.95348 0.27633 197.69872 0 -5.78025 3.91487 8.57865 4.18893 -6.36333 4.26567 3.03279 -0.58994 -15.99575 -31.18628 7.93962 72.16548 -6.8134 -0.42011 18.17415 26.92712 -14.55422 25.84518 -115.16053 -25.81791 8.81663 2.42855 2.28988 -1.43245 -13.29056 0.2775 -4.94072 -12.69569 -2.88653 3.48952 -4.17456 -5.13088 8.05314 6.30509 7.62286
-0.94605 0.95371 0.27293 196.74938 0 -5.87727 3.84889 8.95805 4.19015 -6.5852 4.41748 3.24298 -0.06958 -16.50158 -29.68949 8.14757 72.50258 -6.6019 -0.53359 19.05261 28.98425 -12.78986 26.6295 -116.08702 -26.63926 8.84701 2.0686 2.60955 -1.38872 -12.56 0.09089 -4.85076 -12.13769 -3.0253 3.71422 -3.44222 -5.27588 8.1293 6.51415 8.01683
-0.94911 0.9539 0.26961 195.84335 0 -5.96375 3.77668 9.31774 4.17795 -6.79337 4.59688 3.42722 0.39805 -17.0197 -28.82122 8.29943 72.65378 -6.41304 -0.60472 19.89695 30.88603 -11.08775 27.38384 -116.88588 -27.40817 8.8651 1.70666 2.90865 -1.28272 -11.74349 -0.119 -4.75956 -11.62951 -3.18186 3.93413 -2.73989 -5.37273 8.20267 6.70816 8.38089
-0.95216 0.95411 0.26632 194.92279 0 -6.05653 3.70623 9.68918 4.1934 -7.03987 4.77678 3.65019 0.84533 -17.56154 -28.03127 8.43099 72.80152 -6.23281 -0.65863 20.66669 32.61219 -9.84406 27.98549 -118.34327 -28.28684 8.96757 1.32541 3.21579 -1.25679 -10.89014 -0.33196 -4.67251 -11.08133 -3.33277 4.15684 -2.026 -5.47679 8.28312 6.90897 8.75494
-0.95528 0.95432 0.26293 194.01812 0 -6.14063 3.63526 10.04363 4.15074 -7.20619 4.94255 3.79787 1.36255 -18.04414 -26.74754 8.6355 73.05375 -6.02421 -0.77139 21.6497 34.79659 -7.59138 28.93561 -118.42398 -28.98052 8.89207 0.987 3.51561 -1.0913 -10.16039 -0.52714 -4.57934 -10.60243 -3.48623 4.37596 -1.3271 -5.58951 8.34805 7.10126 9.12073
-0.95856 0.95452 0.25926 193.13585 0 -6.19961 3.55826 10.35384 3.97333 -7.16971 5.06663 3.75156 2.04081 -18.367 -24.43777 9.01202 73.49159 -5.73432 -1.02571 22.9018 38.2196 -2.34471 30.85011 -114.63532 -28.85653 8.3127 0.76412 3.78788 -0.4651 -9.70521 -0.69032 -4.46477 -10.34177 -3.66231 4.58247 -0.65681 -5.70152 8.37829 7.27409 9.46662
-0.96189 0.95474 0.2555 192.28267 0 -6.24846 3.48062 10.64328 3.73108 -7.04746 5.18066 3.62353 2.78205 -18.63102 -21.68886 9.45622 74.02043 -5.42166 -1.33471 24.41942 42.06818 3.83511 33.10297 -109.48477 -28.59047 7.5585 0.5832 4.05074 0.29529 -9.36745 -0.83766 -4.34608 -10.15817 -3.84095 4.78511 -0.0109 -5.81819 8.39083 7.43494 9.79862
-0.96518 0.95497 0.25178 191.44531 0 -6.29969 3.40408 10.9344 3.49751 -6.95066 5.31204 3.5164 3.49526 -18.92639 -19.15013 9.86645 74.50885 -5.13042 -1.6148 26.00988 45.67388 9.40135 35.17577 -105.00626 -28.59597 6.89461 0.382 4.31623 0.96095 -8.9826 -0.99086 -4.23385 -9.94189 -4.01414 4.98996 0.62681 -5.93216 8.4054 7.59377 10.12542
-0.96856 0.95514 0.24804 190.47917 0 -6.36133 3.32424 11.25986 3.35045 -6.91317 5.3917 3.47776 4.21738 -19.2054 -16.50589 10.29474 75.008 -4.78916 -1.9143 26.78969 49.52262 15.82684 37.3648 -100.27891 -27.76897 6.18195 0.18662 4.59051 1.76701 -8.57849 -1.14783 -4.10228 -9.71095 -4.20441 5.19348 1.3505 -6.05259 8.44575 7.78566 10.50352
-0.97175 0.95542 0.24434 189.79291 0 -6.39822 3.25136 11.50807 3.01 -6.72943 5.57205 3.27841 4.92576 -19.49954 -14.00874 10.70006 75.50069 -4.54899 -2.18677 29.31623 52.937 20.62222 39.39011 -95.77518 -28.59163 5.5325 -0.01126 4.84321 2.31214 -8.24026 -1.29371 -4.00973 -9.53115 -4.35986 5.3984 1.88571 -6.15883 8.42788 7.90488 10.77
-0.9744 0.95601 0.24074 189.84225 0 -6.37271 3.19404 11.5505 2.13035 -6.18103 6.08117 2.63869 5.65166 -19.89819 -11.92125 11.02135 75.95394 -4.58006 -2.3543 36.62135 55.24724 21.18967 40.87867 -91.9978 -34.4434 5.07865 -0.22523 5.04245 2.11872 -8.04714 -1.41546 -4.02939 -9.46772 -4.42181 5.61092 1.92999 -6.22822 8.25561 7.83098 10.73708
-0.97686 0.9567 0.2372 190.17752 0 -6.32192 3.14413 11.51537 1.06233 -5.48482 6.68419 1.84302 6.34772 -20.3064 -10.02241 11.31711 76.39518 -4.71603 -2.49464 45.66312 57.0672 20.00183 42.18928 -88.54434 -41.8848 4.70079 -0.44338 5.2193 1.6564 -7.91648 -1.52643 -4.0879 -9.45464 -4.44836 5.82428 1.78142 -6.28191 8.02491 7.68348 10.59109
-0.9794 0.95734 0.23366 190.40321 0 -6.28035 3.09358 11.51385 0.09399 -4.84446 7.21166 1.12927 7.01013 -20.67724 -8.11424 11.6267 76.83957 -4.81366 -2.6589 53.90593 58.97736 19.26992 43.58327 -85.07779 -48.30172 4.29964 -0.66048 5.40378 1.30718 -7.76158 -1.64092 -4.12636 -9.42323 -4.48896 6.03559 1.70441 -6.34005 7.81967 7.56632 10.49291
-0.98194 0.95798 0.23 190.54735 0 -6.248 3.03257 11.51812 -0.93682 -4.2495 7.87369 0.3657 7.87374 -21.1807 -5.87235 11.92991 77.29778 -4.87285 -2.7793 62.23114 61.45842 19.95985 44.98318 -80.95785 -55.96131 3.83584 -0.87273 5.59899 0.99849 -7.59409 -1.76061 -4.17463 -9.37591 -4.53762 6.25442 1.69146 -6.41004 7.61863 7.46131 10.40901
-0.98444 0.95866 0.22661 190.92455 0 -6.1906 2.99377 11.49271 -1.88038 -3.52529 8.28275 -0.32961 8.31086 -21.41692 -4.36989 12.23875 77.72234 -5.03508 -2.98015 70.75353 62.63346 17.32687 46.31831 -78.34316 -61.44664 3.53424 -1.09633 5.76628 0.54295 -7.46526 -1.86714 -4.21192 -9.37186 -4.5618 6.4571 1.50338 -6.45118 7.39494 7.3144 10.26914
-0.98696 0.95941 0.22391 191.91247 0 -6.06975 3.02612 11.40017 -2.54511 -2.48741 7.92828 -0.80195 7.57303 -20.86184 -4.92298 12.57454 78.06235 -5.47579 -3.4415 79.74181 60.27686 5.3606 47.5615 -79.3651 -60.22665 3.5606 -1.35294 5.86512 -0.27999 -7.43428 -1.94018 -4.20783 -9.48182 -4.52087 6.62122 0.84632 -6.41946 7.12556 7.06344 9.99881
-0.98944 0.96019 0.22149 193.11773 0 -5.92468 3.07845 11.28161 -3.11341 -1.32432 7.32362 -1.19906 6.40807 -20.04718 -6.20521 12.91534 78.36733 -6.01314 -3.97879 88.80504 56.6311 -9.78364 48.7331 -81.96297 -56.81279 3.76384 -1.62047 5.93602 -1.23682 -7.43826 -2.00042 -4.19164 -9.63183 -4.45769 6.76784 0.02597 -6.35865 6.83512 6.77414 9.67703
-0.99193 0.96094 0.21896 194.19936 0 -5.79105 3.11398 11.17743 -3.72049 -0.21353 6.86149 -1.62786 5.44068 -19.38528 -7.1163 13.25036 78.68439 -6.49335 -4.45988 97.60237 53.60046 -23.0936 49.91078 -84.15665 -54.62158 3.95795 -1.88151 6.01779 -2.11502 -7.42143 -2.06641 -4.18206 -9.75876 -4.40868 6.91851 -0.69825 -6.30921 6.55261 6.5066 9.38095
-0.99448 0.96175 0.21633 195.39706 0 -5.65474 3.18219 11.05856 -4.35657 0.88569 6.28207 -2.07293 4.45552 -18.57732 -8.2003 13.60018 79.01759 -7.03256 -5.03056 107.42916 50.4212 -38.11375 51.20537 -85.11293 -51.57387 3.86836 -2.14935 6.10681 -3.07809 -7.42759 -2.13214 -4.16924 -9.90853 -4.34119 7.08604 -1.52218 -6.26711 6.27456 6.21806 9.07022
-0.99688 0.96245 0.21399 196.3995 0 -5.51855 3.18717 10.9666 -4.9055 2.03349 5.88484 -2.46392 3.40903 -18.01114 -9.09653 13.91962 79.30865 -7.47107 -5.43436 115.11955 47.26209 -50.30012 52.22767 -88.92971 -49.71738 4.39242 -2.40527 6.17397 -3.89205 -7.39344 -2.19569 -4.15967 -10.01904 -4.30754 7.21386 -2.17419 -6.20295 5.98348 5.96524 8.78042
-0.9989 0.96283 0.21231 196.82044 0 -5.38882 3.01103 10.94247 -5.24829 3.31216 6.06397 -2.72531 2.27419 -18.182 -9.28227 14.16299 79.49457 -7.60212 -5.34682 116.76873 44.38479 -53.90039 52.6406 -101.00767 -52.13037 6.72478 -2.62814 6.19122 -4.26613 -7.23837 -2.25495 -4.16283 -10.01597 -4.37115 7.23983 -2.31493 -6.08576 5.65758 5.81947 8.5507
-1.00077 0.96311 0.21092 197.03424 0 -5.26004 2.77081 10.94875 -5.50372 4.62943 6.43225 -2.93373 1.09668 -18.60395 -9.25583 14.37394 79.63867 -7.62902 -5.09079 116.27687 41.59029 -54.52338 52.7628 -115.76837 -55.73634 9.63879 -2.83807 6.18686 -4.48348 -7.04159 -2.31266 -4.16933 -9.97113 -4.46995 7.22581 -2.27555 -5.94737 5.32023 5.71137 8.34579
-1.0027 0.96344 0.20943 197.33387 0 -5.13091 2.56105 10.95035 -5.79106 5.91044 6.70568 -3.1648 -0.04545 -18.90711 -9.33413 14.59411 79.80042 -7.70691 -4.92023 116.84084 38.82021 -56.49484 52.93279 -128.80951 -58.48571 12.18332 -3.05238 6.19016 -4.76802 -6.86405 -2.3722 -4.1736 -9.94186 -4.55406 7.22775 -2.31524 -5.81821 4.99117 5.58724 8.13752
-1.00469 0.96376 0.20785 197.67491 0 -5.00093 2.34652 10.91384 -6.1081 7.27531 7.0084 -3.39967 -1.26908 -19.22121 -9.40158 14.83822 79.96732 -7.77295 -4.71592 117.06993 35.74727 -58.61369 53.44264 -144.02034 -62.44928 15.1785 -3.27376 6.20169 -5.07384 -6.68585 -2.42699 -4.1805 -9.92749 -4.63237 7.23829 -2.37191 -5.68952 4.64871 5.45774 7.89609
-1.00651 0.96408 0.2065 197.87943 0 -4.87284 2.12623 10.96246 -6.34369 8.47256 7.29773 -3.61459 -2.3287 -19.57523 -9.43333 15.02409 80.11321 -7.83745 -4.5394 117.47306 33.33616 -59.65673 53.19354 -155.32602 -64.24293 17.37021 -3.47676 6.19121 -5.2971 -6.49957 -2.49089 -4.18283 -9.87279 -4.7308 7.22183 -2.34905 -5.55546 4.33121 5.34809 7.72763
-1.00793 0.96447 0.20574 197.74088 0 -4.75371 1.90758 11.2546 -6.37546 9.19934 7.50871 -3.79015 -2.91242 -19.98082 -9.40279 15.06204 80.21784 -7.92421 -4.49411 118.9983 32.78691 -58.62337 50.77109 -155.21138 -59.34221 17.20684 -3.63568 6.12654 -5.32288 -6.29316 -2.58549 -4.17192 -9.70674 -4.88147 7.13928 -2.14315 -5.40973 4.0903 5.29157 7.77859
-1.00917 0.96487 0.20519 197.47413 0 -4.63602 1.68514 11.62853 -6.32816 9.75431 7.69935 -3.94667 -3.32974 -20.41784 -9.34429 15.04146 80.30145 -8.01215 -4.48016 120.75211 32.89724 -56.5723 47.62106 -151.06902 -52.29632 16.21426 -3.77583 6.04055 -5.27174 -6.08141 -2.68843 -4.15631 -9.50311 -5.05025 7.03141 -1.86414 -5.25994 3.87433 5.25276 7.89836
-1.01049 0.96526 0.20453 197.2759 0 -4.51493 1.46275 11.95476 -6.31851 10.38707 7.8982 -4.11123 -3.82937 -20.84111 -9.30331 15.04455 80.39088 -8.0986 -4.44224 122.32093 32.67632 -54.85025 44.90461 -148.74147 -46.52258 15.59472 -3.92221 5.96339 -5.26029 -5.87717 -2.78418 -4.14279 -9.32331 -5.20748 6.93587 -1.6225 -5.11333 3.64356 5.20079 7.97059
-1.01183 0.96565 0.20394 197.02714 0 -4.40462 1.24413 12.32655 -6.30109 11.02573 8.11064 -4.27904 -4.30274 -21.27437 -9.2292 15.05931 80.49567 -8.18621 -4.43782 124.14911 32.5903 -53.5514 41.75159 -146.54744 -39.56598 15.00568 -4.07785 5.88831 -5.22349 -5.64993 -2.89411 -4.12959 -9.11407 -5.38018 6.83482 -1.35658 -4.95989 3.42607 5.17074 8.11051
-1.01308 0.96605 0.20325 196.85604 0 -4.27322 1.01894 12.62239 -6.27898 11.60673 8.28401 -4.43304 -4.79043 -21.68646 -9.22748 15.03575 80.56265 -8.27214 -4.37541 125.52984 32.37919 -51.21613 39.32866 -143.11758 -34.50841 14.15604 -4.2099 5.80508 -5.22321 -5.47002 -2.97666 -4.11455 -8.95714 -5.52422 6.74052 -1.12692 -4.82053 3.18814 5.09995 8.12777
-1.0141 0.96649 0.20222 196.93046 0 -4.07444 0.76514 12.68862 -6.29262 12.10522 8.38459 -4.58264 -5.35893 -22.07164 -9.36767 14.9256 80.54254 -8.36162 -4.12707 125.53906 31.6601 -45.8579 39.18756 -136.96122 -35.54488 12.71697 -4.28157 5.69665 -5.34362 -5.42102 -2.98034 -4.09585 -8.95976 -5.58655 6.66469 -1.00968 -4.71657 2.87795 4.90161 7.7694
